Coordinates
version=1
nRows=13
nColumns=36
inDegrees=yes

Units are S.I. units (second, meters, Newtons, ...)
If the header above contains a line with 'inDegrees', this indicates whether rotational values are in degrees (yes) or radians (no).

endheader
time	pelvis_tilt	pelvis_list	pelvis_rotation	pelvis_tx	pelvis_ty	pelvis_tz	hip_flexion_r	hip_adduction_r	hip_rotation_r	knee_angle_r	knee_angle_r_beta	ankle_angle_r	subtalar_angle_r	mtp_angle_r	hip_flexion_l	hip_adduction_l	hip_rotation_l	knee_angle_l	knee_angle_l_beta	ankle_angle_l	subtalar_angle_l	mtp_angle_l	lumbar_extension	lumbar_bending	lumbar_rotation	arm_flex_r	arm_add_r	arm_rot_r	elbow_flex_r	pro_sup_r	arm_flex_l	arm_add_l	arm_rot_l	elbow_flex_l	pro_sup_l
      0.95000000	    -12.68474307	      0.37661663	      7.14846388	     -0.78141988	      1.18771877	     -0.58518062	     26.61847332	     -1.95194464	     -4.33648020	     60.04484725	      1.04798028	    -14.60213275	    -18.87670998	     -5.58148638	     17.39614486	     -3.70472145	     -4.45595637	     46.08881261	      0.80440153	     -1.96533973	      1.05563449	     -5.58148638	    -10.48799626	     -1.69049070	     -4.46835282	     20.97849149	    -43.44553494	     -8.28715687	    120.08801396	     98.45095699	     64.11099996	    -37.59162131	     43.02746158	     96.24169915	    100.36209875
      0.96000000	    -12.63958175	      0.51945330	      7.12006218	     -0.77047730	      1.19162857	     -0.58471411	     27.38531122	     -2.38277852	     -4.80794319	     60.53540871	      1.05654220	    -12.68776013	    -19.37130906	     -5.66513120	     18.10875928	     -3.88570997	     -4.84523385	     47.38255297	      0.82698156	     -6.30507518	     -0.98989136	     -5.66513120	    -10.26770455	     -1.81825243	     -4.17077910	     19.23603839	    -45.39472298	    -10.70011708	    121.71108532	     99.04849316	     66.03751568	    -39.11432839	     44.93493914	     97.44772694	    101.11708699
      0.97000000	    -12.60942579	      0.38659355	      7.20848853	     -0.75981261	      1.19440312	     -0.58443054	     28.19508262	     -2.50329306	     -5.33141946	     60.69069569	      1.05925247	    -11.30148511	    -20.16434398	     -5.68598358	     19.13126486	     -4.37310794	     -4.96009913	     49.46407922	      0.86331104	     -7.25239769	     -2.10660993	     -5.68598358	    -10.09372116	     -1.48426450	     -4.32725096	     18.23349102	    -47.43041578	    -12.08926342	    123.18401234	     99.25553530	     67.31481481	    -41.12633450	     45.96923247	     99.14639247	    101.47276319
      0.98000000	    -12.80062104	      0.55504235	      7.41126292	     -0.74957418	      1.19593162	     -0.58430783	     29.34284904	     -3.00842909	     -5.61873469	     60.80918297	      1.06132046	    -10.87659667	    -20.50937786	     -5.94420055	     20.54275903	     -4.23535869	     -4.66262984	     51.90859721	      0.90597593	     -7.21051761	     -5.52731739	     -5.94420055	    -10.09715809	     -1.89611781	     -1.62043418	      9.47928439	    -49.83983379	    -22.66801977	    126.63421617	    100.57308969	     71.88879036	    -39.38569599	     50.95338249	     97.87294542	    102.28706244
      0.99000000	    -12.80918156	      0.54166763	      7.70783825	     -0.73974186	      1.19662042	     -0.58450438	     30.33223849	     -3.42105954	     -6.12227189	     60.76247786	      1.06050530	    -11.02889291	    -20.78202054	     -5.95830766	     22.13916632	     -4.31341132	     -4.27486385	     54.93512535	      0.95879881	     -5.65675263	     -7.45702265	     -5.95830766	    -10.08072638	     -1.65161476	     -2.26838387	      8.52494070	    -51.58509186	    -24.02481837	    127.40247006	    100.65127244	     73.11936650	    -41.71716654	     51.79885472	     99.64026696	    102.56575910
      1.00000000	    -13.23996558	      0.58901219	      8.12346103	     -0.73000183	      1.19584945	     -0.58459846	     31.73271165	     -3.90519681	     -6.48216290	     60.42018931	      1.05453124	    -11.99854179	    -21.87455081	     -6.20986054	     24.29875354	     -4.08239997	     -3.62204181	     57.82972103	      1.00931904	     -4.92022918	     -9.88212660	     -6.20986054	     -9.99074065	     -1.85852820	      0.02674384	     -1.70131903	    -52.82642083	    -35.94616914	    130.35773280	    101.47057891	     77.11235537	    -40.30295695	     56.39515320	     98.80330701	    102.79295506
      1.01000000	    -13.35622018	      0.63972665	      8.58435750	     -0.72053006	      1.19441681	     -0.58487774	     32.78360529	     -4.42912492	     -6.93701119	     59.94249020	      1.04619382	    -12.07998532	    -22.20264993	     -6.39417125	     26.22022378	     -3.84585309	     -2.92805135	     60.67241510	      1.05893341	     -4.87625792	    -11.39058895	     -6.39417125	    -10.18059978	     -1.80734084	      0.73889764	     -7.93583290	    -53.63814264	    -43.38366212	    131.96320493	    101.46347900	     79.60913683	    -40.74993783	     58.98838375	     99.15729203	    102.88967885
      1.02000000	    -13.41145674	      0.70469912	      8.99165647	     -0.71124909	      1.19206064	     -0.58495383	     33.70905967	     -4.79698940	     -7.09663441	     59.16153362	      1.03256355	    -11.82960356	    -22.48684306	     -6.56533935	     28.06416202	     -3.58454409	     -2.19508972	     63.25419694	      1.10399400	     -4.86267558	    -11.76202948	     -6.56533935	    -10.55587004	     -1.77134290	      1.53143404	    -14.51660415	    -53.85415929	    -51.22069902	    133.46067100	    101.05589707	     82.14449217	    -41.20669999	     61.51563662	     99.57639811	    102.85505688
      1.03000000	    -13.36558645	      0.74124329	      9.34797275	     -0.70202229	      1.18904834	     -0.58495618	     34.43600619	     -4.99446246	     -7.03783313	     58.02306590	      1.01269354	    -11.35126543	    -22.60048430	     -6.57682123	     29.77978620	     -3.37152573	     -1.54458677	     65.48125855	      1.14286356	     -4.95702261	    -11.62007851	     -6.57682123	    -10.86988792	     -1.58891028	      0.58726912	    -15.97319724	    -54.64567562	    -53.18375305	    133.66600152	    100.98529413	     83.45917419	    -44.03544849	     62.72592491	    101.47033204	    103.12966840
      1.04000000	    -13.13585378	      1.03823295	      9.55357705	     -0.69278186	      1.18535980	     -0.58460336	     34.92327228	     -5.30092664	     -6.59359887	     56.74413192	      0.99037193	    -10.00951964	    -21.45414626	     -6.68900868	     31.11798720	     -3.01300532	     -1.17856069	     67.22569327	      1.17330969	     -4.12896986	     -9.95750868	     -6.68900868	    -11.82565598	     -1.84953684	      2.52313155	    -25.11586616	    -53.17853973	    -63.98592944	    135.27965014	    100.53979151	     86.71606932	    -43.11871582	     66.21644635	    100.87297015	    102.71894284
      1.05000000	    -12.77866329	      1.41744486	      9.73426659	     -0.68350506	      1.18115244	     -0.58458512	     35.18408204	     -5.69626107	     -6.09312201	     55.22424649	      0.96384493	     -8.92417483	    -20.26647530	     -6.79136980	     32.18661226	     -2.49036841	     -0.88702085	     68.38549472	      1.19355204	     -3.81370419	     -8.87375128	     -6.79136980	    -12.94579229	     -1.93780191	      3.26974254	    -30.82914275	    -52.13344816	    -70.93525567	    136.29547626	     99.84764700	     88.42251435	    -43.97739399	     67.62579950	    101.56098445	    102.47759053
      1.06000000	    -12.36682319	      1.87652194	      9.84422329	     -0.67408091	      1.17617966	     -0.58436693	     35.27108917	     -6.06229641	     -5.39799181	     53.46493672	      0.93313918	     -7.53860764	    -18.62775307	     -6.85037791	     33.05422674	     -1.96615824	     -0.80755273	     69.02619884	      1.20473444	     -3.40399388	     -7.29490237	     -6.85037791	    -14.07789504	     -2.15061007	      3.46172986	    -34.71450371	    -51.22111420	    -75.55148350	    136.84587938	     99.25393412	     90.31067444	    -45.71379141	     69.65619617	    102.64402849	    102.42372394
      1.07000000	    -11.93747239	      2.32586763	      9.86847599	     -0.66456756	      1.17041220	     -0.58390581	     35.26669982	     -6.26997481	     -4.47256280	     51.47516008	      0.89841103	     -6.79475159	    -17.63021326	     -6.86694521	     33.80203685	     -1.52909610	     -0.87466986	     69.18007742	      1.20742013	     -3.40465897	     -6.15601369	     -6.86694521	    -15.27616670	     -2.29733997	      3.06196350	    -37.19457174	    -50.76374725	    -78.43186885	    137.28347762	     99.00938836	     91.61505327	    -48.58371051	     70.89387122	    104.60091918	    102.57400062
